<mxfile host="65bd71144e">
    <diagram id="DZi1uJbbmgiSh4G_eWgV" name="Page-1">
        <mxGraphModel dx="746" dy="576" grid="1" gridSize="10" guides="1" tooltips="1" connect="1" arrows="1" fold="1" page="1" pageScale="1" pageWidth="850" pageHeight="1100" math="0" shadow="0">
            <root>
                <mxCell id="0"/>
                <mxCell id="1" parent="0"/>
                <mxCell id="2" value="getRequestedIndexPage" style="rounded=0;whiteSpace=wrap;html=1;" vertex="1" parent="1">
                    <mxGeometry x="40" y="40" width="200" height="40" as="geometry"/>
                </mxCell>
                <mxCell id="3" value="showResponsePage" style="rounded=0;whiteSpace=wrap;html=1;" vertex="1" parent="1">
                    <mxGeometry x="40" y="80" width="200" height="40" as="geometry"/>
                </mxCell>
                <mxCell id="4" value="" style="endArrow=classic;html=1;exitX=1;exitY=0.5;exitDx=0;exitDy=0;entryX=0;entryY=0.5;entryDx=0;entryDy=0;" edge="1" parent="1" source="3" target="5">
                    <mxGeometry width="50" height="50" relative="1" as="geometry">
                        <mxPoint x="360" y="320" as="sourcePoint"/>
                        <mxPoint x="360" y="60" as="targetPoint"/>
                    </mxGeometry>
                </mxCell>
                <mxCell id="5" value="showDocumentStart" style="rounded=0;whiteSpace=wrap;html=1;" vertex="1" parent="1">
                    <mxGeometry x="320" y="40" width="160" height="40" as="geometry"/>
                </mxCell>
                <mxCell id="6" value="showHeadSection" style="rounded=0;whiteSpace=wrap;html=1;" vertex="1" parent="1">
                    <mxGeometry x="320" y="80" width="160" height="40" as="geometry"/>
                </mxCell>
                <mxCell id="7" value="showBodySection" style="rounded=0;whiteSpace=wrap;html=1;" vertex="1" parent="1">
                    <mxGeometry x="320" y="120" width="160" height="40" as="geometry"/>
                </mxCell>
                <mxCell id="8" value="showDocumentEnd" style="rounded=0;whiteSpace=wrap;html=1;" vertex="1" parent="1">
                    <mxGeometry x="320" y="160" width="160" height="40" as="geometry"/>
                </mxCell>
                <mxCell id="9" value="" style="endArrow=classic;html=1;entryX=0.5;entryY=0;entryDx=0;entryDy=0;" edge="1" parent="1" target="10">
                    <mxGeometry width="50" height="50" relative="1" as="geometry">
                        <mxPoint x="120" y="200" as="sourcePoint"/>
                        <mxPoint x="410" y="270" as="targetPoint"/>
                        <Array as="points">
                            <mxPoint x="320" y="140"/>
                        </Array>
                    </mxGeometry>
                </mxCell>
                <mxCell id="10" value="showBodyStart" style="rounded=0;whiteSpace=wrap;html=1;" vertex="1" parent="1">
                    <mxGeometry x="40" y="200" width="160" height="40" as="geometry"/>
                </mxCell>
                <mxCell id="11" value="showHeader" style="rounded=0;whiteSpace=wrap;html=1;" vertex="1" parent="1">
                    <mxGeometry x="40" y="240" width="160" height="40" as="geometry"/>
                </mxCell>
                <mxCell id="12" value="showMenu" style="rounded=0;whiteSpace=wrap;html=1;" vertex="1" parent="1">
                    <mxGeometry x="40" y="280" width="160" height="40" as="geometry"/>
                </mxCell>
                <mxCell id="13" value="ShowContent" style="rounded=0;whiteSpace=wrap;html=1;" vertex="1" parent="1">
                    <mxGeometry x="40" y="320" width="160" height="40" as="geometry"/>
                </mxCell>
                <mxCell id="14" value="ShowFooter" style="rounded=0;whiteSpace=wrap;html=1;" vertex="1" parent="1">
                    <mxGeometry x="40" y="360" width="160" height="40" as="geometry"/>
                </mxCell>
                <mxCell id="15" value="ShowBodyEnd" style="rounded=0;whiteSpace=wrap;html=1;" vertex="1" parent="1">
                    <mxGeometry x="40" y="400" width="160" height="40" as="geometry"/>
                </mxCell>
                <mxCell id="16" value="" style="endArrow=classic;html=1;exitX=1;exitY=0.5;exitDx=0;exitDy=0;entryX=0;entryY=0.5;entryDx=0;entryDy=0;" edge="1" parent="1" source="13" target="17">
                    <mxGeometry width="50" height="50" relative="1" as="geometry">
                        <mxPoint x="360" y="320" as="sourcePoint"/>
                        <mxPoint x="410" y="270" as="targetPoint"/>
                    </mxGeometry>
                </mxCell>
                <mxCell id="17" value="ShowIndexPage" style="rounded=0;whiteSpace=wrap;html=1;" vertex="1" parent="1">
                    <mxGeometry x="350" y="240" width="340" height="50" as="geometry"/>
                </mxCell>
                <mxCell id="18" value="getRequest&lt;br&gt;AboutPage" style="rounded=0;whiteSpace=wrap;html=1;" vertex="1" parent="1">
                    <mxGeometry x="350" y="290" width="170" height="40" as="geometry"/>
                </mxCell>
                <mxCell id="23" value="getRequest&lt;br&gt;ContactPage" style="rounded=0;whiteSpace=wrap;html=1;" vertex="1" parent="1">
                    <mxGeometry x="520" y="290" width="170" height="40" as="geometry"/>
                </mxCell>
                <mxCell id="26" value="ShowAboutPage" style="rounded=0;whiteSpace=wrap;html=1;" vertex="1" parent="1">
                    <mxGeometry x="350" y="330" width="170" height="30" as="geometry"/>
                </mxCell>
                <mxCell id="27" value="showBodyStart" style="rounded=0;whiteSpace=wrap;html=1;" vertex="1" parent="1">
                    <mxGeometry x="40" y="460" width="160" height="40" as="geometry"/>
                </mxCell>
                <mxCell id="28" value="showHeader" style="rounded=0;whiteSpace=wrap;html=1;" vertex="1" parent="1">
                    <mxGeometry x="40" y="500" width="160" height="40" as="geometry"/>
                </mxCell>
                <mxCell id="29" value="showMenu" style="rounded=0;whiteSpace=wrap;html=1;" vertex="1" parent="1">
                    <mxGeometry x="40" y="540" width="160" height="40" as="geometry"/>
                </mxCell>
                <mxCell id="30" value="ShowContent" style="rounded=0;whiteSpace=wrap;html=1;" vertex="1" parent="1">
                    <mxGeometry x="40" y="580" width="160" height="40" as="geometry"/>
                </mxCell>
                <mxCell id="31" value="ShowFooter" style="rounded=0;whiteSpace=wrap;html=1;" vertex="1" parent="1">
                    <mxGeometry x="40" y="620" width="160" height="40" as="geometry"/>
                </mxCell>
                <mxCell id="32" value="ShowBodyEnd" style="rounded=0;whiteSpace=wrap;html=1;" vertex="1" parent="1">
                    <mxGeometry x="40" y="660" width="160" height="40" as="geometry"/>
                </mxCell>
                <mxCell id="33" value="" style="endArrow=classic;html=1;entryX=1;entryY=0.5;entryDx=0;entryDy=0;" edge="1" parent="1" source="26" target="27">
                    <mxGeometry width="50" height="50" relative="1" as="geometry">
                        <mxPoint x="330" y="530" as="sourcePoint"/>
                        <mxPoint x="380" y="480" as="targetPoint"/>
                    </mxGeometry>
                </mxCell>
                <mxCell id="34" value="ShowContactform" style="rounded=0;whiteSpace=wrap;html=1;" vertex="1" parent="1">
                    <mxGeometry x="520" y="330" width="170" height="30" as="geometry"/>
                </mxCell>
                <mxCell id="35" value="PostRequestContactpage" style="rounded=0;whiteSpace=wrap;html=1;" vertex="1" parent="1">
                    <mxGeometry x="520" y="360" width="170" height="40" as="geometry"/>
                </mxCell>
                <mxCell id="36" value="" style="endArrow=classic;html=1;exitX=0.5;exitY=1;exitDx=0;exitDy=0;" edge="1" parent="1" source="35">
                    <mxGeometry width="50" height="50" relative="1" as="geometry">
                        <mxPoint x="330" y="450" as="sourcePoint"/>
                        <mxPoint x="440" y="480" as="targetPoint"/>
                    </mxGeometry>
                </mxCell>
            </root>
        </mxGraphModel>
    </diagram>
</mxfile>